# xmcd
#
# Track frame offsets: 
#        182
#        17655
#        29582
#        39527
#        56232
#        71670
#        89137
#        103580
#        119960
#        132702
#
# Disc length: 1906 seconds
#
# Revision: 2
# Processed by: cddbd v1.4PL0 Copyright (c) Steve Scherf et al.
# Submitted via: ExactAudioCopy v0.90b4
#
DISCID=9f07700a
DTITLE=Reba McEntire - Reba Nell McEntire
DYEAR=1900
DGENRE=Country
TTITLE0=I've Never Stopped Dreaming Of You
TTITLE1=Hold On
TTITLE2=I Know I'll Have A Better Day Tomorrow
TTITLE3=Don't Say Goodnight, Say Good Morning
TTITLE4=Muddy Mississippi
TTITLE5=It's Another Silent Night
TTITLE6=Empty Arms
TTITLE7=Love Is Never Easy
TTITLE8=Waitin' For The Sun To Shine
TTITLE9=Good Friends
EXTD=
EXTT0=
EXTT1=
EXTT2=
EXTT3=
EXTT4=
EXTT5=
EXTT6=
EXTT7=
EXTT8=
EXTT9=
PLAYORDER=
